#!OML:ASF E:/inclinewalkrobotboard/Project1/Captureday1/Session1/subject1.ASF
:FULLY-SPECIFIED
:DEGREES
388
root 0 0 0 -1.8524614724442656 -5.268653092922834 -6.9104997813221045
lowerback 11.56907525491237 1.8865310407831082 6.343577572211894
upperback 0.7578826750978948 3.3936428169154915 2.1482978524101304
thorax -5.4582500348080005 1.5447200522259912 -1.820341064717684
lowerneck -17.379424939601787 -3.5787704784056507 -1.5831627446468155
upperneck 19.439251954158593 -4.5637541439967215 0.40637344176502976
head 9.055462311459005 -2.221886083409035 -0.18648486385315022
rclavicle 1.871105601722833E-15 -1.9613466081571436E-15
rhumerus -28.043218578888283 -18.030395638169935 -77.6311388563864
rradius 29.557465705199643
rwrist 0.30542701644824444
rhand -19.310881263696572 24.501887675402735
rfingers 7.125020000000017
rthumb 7.008447251819219 -5.416874471918856
lclavicle -1.9763342423710945E-15 -1.624347349730562E-15
lhumerus -35.60023588341682 -0.054690893095517695 84.58923312967735
lradius 27.197839673958388
lwrist 6.03112106929378
lhand -27.239961596659334 23.946105424887136
lfingers 7.125020000000018
lthumb -0.6439134404606879 53.94349823046933
rfemur 12.29018708812907 8.349227932970333 35.71011116606303
rtibia 27.16286838415475
rfoot -20.318858774086326 -4.810725003257729
rtoes -4.174875028651017
lfemur -26.10290361451433 -4.527822448998843 -11.531482844163039
ltibia 20.349132841762213
lfoot -5.545272674874502 4.430840666332012
ltoes -1.4879051376955061
389
root 0 0 0 -2.0757121940072825 -5.206295667921583 -6.504480916673314
lowerback 11.604436940655752 1.9166927345343105 5.895302242527537
upperback 0.6365955173834512 3.380587227484133 2.0112183469938882
thorax -5.61933785448223 1.5456906042503098 -1.7130552767208518
lowerneck -17.077556950996406 -3.6421495411262734 -1.5141647428145664
upperneck 19.492624354704397 -4.706265428650305 0.5417904388479751
head 9.058615233750274 -2.2654182789750257 -0.1638233544116855
rclavicle 9.896175064567628E-16 -2.415433624809078E-15
rhumerus -28.54995352655637 -19.106278350683354 -77.21067295184318
rradius 29.028100270708194
rwrist 0.7417960822105822
rhand -19.28569410072067 24.221357312516133
rfingers 7.125020000000017
rthumb 7.033306008004054 -5.707148183015185
lclavicle -2.900815978387057E-15 -2.353015148248678E-15
lhumerus -35.88229800385126 0.7067827073090045 84.22432746102972
lradius 26.419208079319297
lwrist 5.564270877609838
lhand -27.13180552179918 24.21302132581611
lfingers 7.125020000000018
lthumb -0.5397290057183382 54.21741200666928
rfemur 11.595112905533519 7.249152175225246 34.31445720778605
rtibia 32.16436973491392
rfoot -16.872510154799535 -3.240701435336278
rtoes -5.226360587653762
lfemur -25.4394832159034 -4.119657395140607 -12.54587873052256
ltibia 21.443937828368476
lfoot -5.289310012006105 3.468916777513299
ltoes -1.0492467586772527
390
root 0 0 0 -2.158571189862396 -5.183683926950881 -5.723521329756373
lowerback 11.332010730593508 2.0044033631434086 5.135737827016118
upperback 0.49818599528089913 3.387766372617566 1.7211010805563771
thorax -5.62560946521911 1.5636624867314342 -1.5881147750850544
lowerneck -16.6044374752413 -3.635822077860559 -1.3877345863916764
upperneck 19.615352173108686 -4.772430078831237 0.7291386558755621
head 9.049690239809475 -2.2660553368612213 -0.12180002846697457
rclavicle 8.174121716750875E-16 -2.1272398694375976E-15
rhumerus -29.17888651640923 -20.285261576561496 -76.75484675482821
rradius 28.469484485795412
rwrist 1.1666450692762842
rhand -19.240771272227505 23.873626821816842
rfingers 7.125020000000018
rthumb 7.076444544666264 -6.059006807110322
lclavicle -2.982294660590459E-15 -2.2932529084172995E-15
lhumerus -36.11418023334226 1.6145676865040353 83.80407775989056
lradius 25.59562439603024
lwrist 5.062644879585809
lhand -26.951491875672012 24.473740255219155
lfingers 7.12502000000002
lthumb -0.36590091760340915 54.48290140626763
rfemur 5.12598334575842 4.853498619668363 28.58562928872966
rtibia 39.04675833486723
rfoot -7.518760120456784 -1.152371298833712
rtoes -2.9751784941624706
lfemur -23.431950607526904 -3.3359499147591443 -15.709368064897244
ltibia 24.114537668008165
lfoot -4.7708030092642115 1.137635868476401
ltoes 2.525119455031003
391
root 0 0 0 -2.3626811398939678 -5.187247289444144 -3.906014954751675
lowerback 10.824190512187927 2.1173578908852884 3.5571424553920954
upperback 0.3695344523495287 3.3110975043313227 1.1772581498745427
thorax -5.506027878759011 1.5592824265780485 -1.2543639618982634
lowerneck -16.148285750496107 -3.5701760479847993 -1.3635580972723722
upperneck 20.282074659595104 -4.749576637585925 0.9492762978241832
head 9.213711647970914 -2.226629396035036 -0.047142056658842024
rclavicle 1.2183792145564342E-15 -2.3606475804887406E-15
rhumerus -29.857393842631204 -21.39659354545477 -76.38839406613076
rradius 27.825263446339235
rwrist 1.6693039688126428
rhand -19.129674955295304 23.509663294704378
rfingers 7.12502000000002
rthumb 7.182842964938638 -6.41751714251706
lclavicle -2.6570038205426827E-15 -2.8149832958206284E-15
lhumerus -36.20948230174142 2.449052132847274 83.41014861392232
lradius 24.869187357761355
lwrist 4.60436846639306
lhand -26.77221663687834 24.49784549910481
lfingers 7.1250200000000214
lthumb -0.19349326504072994 54.51168459251228
rfemur -3.5475750141929154 3.2924437322411757 25.89919811890374
rtibia 59.56759662507093
rfoot 9.778325802830022 -0.8801710237298144
rtoes 10.638045128489305
lfemur -20.294203009038785 -2.3165635367881388 -20.221460717464545
ltibia 27.813999956094996
lfoot -4.2388314929555 -1.9189562209707485
ltoes 7.772472684436181
392
root 0 0 0 -3.5012940178111513 -4.786807397436953 -0.8456783815168474
lowerback 10.66130019639718 1.8050307052384955 0.7426225275296877
upperback 0.40360851816487164 2.5238644405031643 0.6375457177365877
thorax -5.479047683442976 1.2359260373929701 -0.12468224851504117
lowerneck -16.16139339385223 -3.3005618986429806 -1.6226916898084514
upperneck 21.395980481645708 -4.334348759044299 0.9005688560243804
head 9.55440092014506 -2.053148802173941 0.019232227569402127
rclavicle 1.2432560020014044E-15 -2.0437470752339263E-15
rhumerus -30.47382237822324 -22.221496462205714 -76.20927515405101
rradius 27.19385599054005
rwrist 2.1230601287731643
rhand -19.04159810530751 23.23733009869108
rfingers 7.125020000000021
rthumb 7.267613399662181 -6.68431832853603
lclavicle -2.643212109831452E-15 -2.5522379943495994E-15
lhumerus -35.87731875812479 2.1472846576853275 83.38160153870946
lradius 25.12526286765555
lwrist 4.936075131360729
lhand -26.95767244607961 24.209029790091932
lfingers 7.125020000000023
lthumb -0.3702515204464403 54.22236868832874
rfemur -7.360492482016833 3.0684010714068073 28.439515201645044
rtibia 72.63458262136879
rfoot 13.559121297670082 -2.0693308058290123
rtoes 18.170198726814366
lfemur -18.2329334200077 -2.2374759878135446 -21.492712608761337
ltibia 28.685145660087457
lfoot -4.9374660649675555 -2.177944870953611
ltoes 8.09695676766394
